<?xml version="1.0" standalone="no"?>
<!DOCTYPE svg PUBLIC "-//W3C//DTD SVG 20010904//EN"
 "http://www.w3.org/TR/2001/REC-SVG-20010904/DTD/svg10.dtd">
<svg version="1.0" xmlns="http://www.w3.org/2000/svg"
 width="710.000000pt" height="710.000000pt" viewBox="0 0 710.000000 710.000000"
 preserveAspectRatio="xMidYMid meet">
<metadata>
Created by potrace 1.11, written by Peter Selinger 2001-2013
</metadata>
<g transform="translate(0.000000,710.000000) scale(0.100000,-0.100000)"
fill="#000000" stroke="none">
<path d="M3094 6872 c-2 -88 -5 -133 -13 -147 -4 -8 -11 -43 -13 -72 -1 -7 -4
-13 -8 -13 -3 0 -7 -9 -8 -20 -4 -43 -6 -50 -13 -50 -5 0 -6 -7 -3 -15 4 -8 1
-15 -5 -15 -6 0 -8 -7 -5 -15 4 -8 1 -15 -6 -15 -6 0 -8 -4 -5 -10 3 -5 2 -10
-4 -10 -6 0 -8 -6 -5 -14 3 -8 1 -17 -5 -21 -6 -3 -11 -15 -11 -26 0 -10 -4
-19 -10 -19 -5 0 -10 -9 -10 -20 0 -11 -5 -20 -12 -20 -6 0 -9 -3 -5 -6 3 -4
-1 -21 -10 -38 -10 -17 -16 -34 -15 -38 1 -5 -3 -8 -9 -8 -5 0 -7 -4 -4 -10 3
-5 1 -10 -5 -10 -6 0 -8 -4 -5 -10 3 -5 1 -10 -6 -10 -7 0 -9 -3 -6 -6 3 -4
-3 -18 -13 -32 -11 -13 -20 -31 -20 -38 0 -8 -5 -14 -11 -14 -5 0 -7 -4 -4
-10 3 -5 1 -10 -4 -10 -6 0 -11 -7 -11 -15 0 -8 -5 -15 -11 -15 -5 0 -7 -4 -4
-10 3 -5 1 -10 -5 -10 -6 0 -8 -4 -5 -10 3 -5 1 -10 -4 -10 -6 0 -11 -7 -11
-16 0 -8 -4 -12 -10 -9 -5 3 -7 0 -4 -8 3 -8 -2 -17 -11 -21 -9 -3 -14 -10
-11 -14 3 -5 -4 -18 -14 -30 -11 -12 -20 -25 -20 -31 0 -5 -7 -11 -15 -15 -8
-3 -15 -14 -15 -25 0 -10 -7 -21 -15 -25 -8 -3 -14 -10 -13 -15 2 -5 -6 -17
-17 -26 -11 -9 -13 -14 -5 -10 8 4 5 -2 -7 -13 -13 -11 -23 -24 -23 -29 0 -7
-16 -28 -60 -80 -6 -7 -7 -13 -3 -13 4 -1 -5 -12 -22 -26 -16 -15 -23 -23 -15
-19 10 4 9 1 -2 -8 -10 -8 -18 -17 -18 -21 0 -4 -12 -18 -26 -31 -15 -14 -24
-25 -20 -25 4 0 2 -6 -4 -12 -6 -7 -18 -22 -26 -33 -9 -11 -12 -14 -8 -6 5 9
3 12 -5 7 -6 -4 -9 -11 -7 -15 3 -4 -10 -25 -29 -46 -19 -21 -35 -41 -35 -44
0 -4 -10 -17 -22 -28 -30 -28 -66 -71 -79 -94 -5 -11 -14 -17 -18 -14 -5 2
-14 -9 -21 -25 -7 -16 -27 -42 -46 -58 -19 -16 -34 -32 -34 -36 0 -11 -32 -41
-44 -41 -6 0 -11 -6 -11 -13 0 -7 -5 -16 -10 -20 -6 -4 -18 -20 -28 -35 -11
-16 -23 -25 -30 -21 -7 4 -9 4 -5 0 9 -11 -23 -46 -35 -39 -6 3 -7 1 -3 -5 3
-6 -1 -15 -10 -20 -9 -5 -16 -13 -16 -18 0 -9 -21 -33 -92 -105 -21 -21 -35
-39 -31 -39 4 0 2 -7 -5 -15 -7 -8 -17 -12 -23 -8 -6 3 -7 1 -3 -5 4 -7 -4
-23 -18 -37 -15 -14 -26 -30 -26 -34 0 -4 -10 -19 -22 -33 -24 -26 -34 -40
-69 -95 -20 -31 -39 -48 -23 -20 4 6 3 8 -1 4 -5 -4 -10 -15 -11 -25 -2 -9 -8
-18 -13 -20 -6 -2 -11 -8 -11 -13 0 -6 -9 -19 -20 -31 -11 -12 -20 -28 -20
-35 0 -7 -4 -13 -10 -13 -5 0 -10 -5 -10 -11 0 -7 -8 -18 -17 -26 -11 -8 -12
-11 -3 -7 13 7 13 6 0 -12 -8 -10 -21 -23 -28 -27 -7 -5 -10 -12 -7 -16 2 -5
-2 -14 -10 -21 -8 -7 -15 -19 -15 -26 0 -8 -9 -23 -20 -34 -11 -11 -19 -21
-18 -22 5 -8 -36 -77 -43 -72 -5 3 -6 -1 -3 -9 3 -8 -2 -22 -11 -31 -9 -9 -13
-16 -9 -16 4 0 -1 -7 -12 -16 -10 -8 -13 -13 -7 -9 9 4 11 1 7 -9 -3 -9 -10
-16 -15 -16 -5 0 -9 -6 -9 -13 0 -19 -24 -67 -33 -67 -5 0 -5 -4 -2 -10 3 -5
1 -10 -4 -10 -6 0 -10 -3 -9 -7 2 -11 -10 -41 -33 -84 -10 -20 -16 -39 -12
-43 3 -3 1 -6 -6 -6 -7 0 -10 -4 -6 -9 3 -5 1 -12 -5 -16 -6 -4 -8 -11 -5 -16
4 -5 1 -9 -5 -9 -6 0 -9 -4 -6 -8 3 -5 -1 -20 -9 -35 -8 -15 -11 -27 -8 -27 3
0 0 -6 -6 -13 -6 -8 -8 -17 -4 -20 3 -4 1 -7 -5 -7 -6 0 -9 -7 -6 -15 4 -8 1
-15 -5 -15 -6 0 -8 -7 -5 -15 4 -8 2 -15 -3 -15 -5 0 -10 -9 -11 -20 -4 -42
-6 -50 -12 -50 -3 0 -6 -10 -7 -22 -1 -27 -12 -78 -18 -89 -3 -4 -7 -24 -11
-45 -3 -22 -8 -50 -10 -64 -25 -126 -34 -344 -19 -505 3 -33 7 -80 9 -105 3
-25 5 -45 7 -45 2 0 4 -16 12 -65 2 -14 7 -31 11 -38 4 -7 5 -16 1 -21 -3 -5
-1 -12 5 -16 6 -4 8 -11 4 -16 -3 -5 -1 -15 4 -22 9 -11 26 -68 27 -92 0 -5 5
-17 10 -25 5 -8 11 -24 12 -35 2 -10 9 -22 15 -26 6 -4 8 -16 5 -28 -3 -12 -1
-24 4 -27 5 -3 7 -10 4 -15 -4 -5 -1 -9 4 -9 6 0 11 -8 11 -18 0 -10 7 -28 16
-40 8 -12 12 -22 8 -22 -3 0 -1 -7 6 -15 7 -8 9 -15 6 -15 -4 0 0 -7 8 -16 9
-8 14 -20 11 -25 -4 -5 -1 -9 5 -9 6 0 9 -4 6 -9 -4 -5 -2 -11 2 -13 10 -3 34
-46 53 -90 6 -16 15 -28 21 -28 5 0 6 -5 3 -10 -3 -5 -1 -10 4 -10 6 0 11 -5
11 -11 0 -6 9 -23 20 -39 11 -15 16 -31 12 -35 -4 -5 -2 -5 5 -1 7 3 14 -2 18
-13 3 -11 19 -34 36 -52 16 -17 29 -35 29 -40 0 -4 10 -17 22 -29 12 -11 18
-20 14 -20 -4 0 6 -12 23 -27 17 -15 31 -31 31 -35 0 -4 19 -28 43 -52 23 -25
47 -50 52 -56 23 -26 165 -156 165 -152 0 3 8 -5 19 -16 10 -12 22 -22 26 -22
8 0 13 -4 68 -54 15 -14 27 -23 27 -20 0 4 66 -42 80 -56 3 -3 12 -6 20 -8 8
-2 17 -8 18 -13 2 -5 8 -9 14 -9 6 0 17 -8 25 -17 8 -10 11 -11 7 -3 -5 8 4 5
20 -8 16 -12 33 -22 39 -22 5 0 16 -8 24 -17 8 -10 12 -12 8 -5 -7 13 66 -26
76 -41 4 -5 12 -6 18 -3 6 4 11 2 11 -4 0 -6 4 -8 10 -5 5 3 10 1 10 -4 0 -6
3 -10 8 -9 6 1 34 -8 82 -29 8 -3 18 -7 23 -8 4 -2 10 -4 15 -5 4 -1 10 -2 15
-1 4 0 7 -3 7 -7 0 -5 6 -9 13 -10 14 -1 51 -10 55 -12 1 -2 5 -3 10 -4 4 -1
13 -5 20 -9 6 -5 12 -6 12 -2 0 3 9 1 21 -5 11 -6 28 -13 37 -15 9 -3 46 -11
82 -20 36 -8 79 -17 95 -19 17 -3 46 -8 65 -11 73 -13 96 -16 128 -15 19 0 31
-3 29 -7 -5 -8 113 -9 239 -2 48 3 53 1 100 -43 299 -283 649 -461 1001 -508
116 -16 360 -8 468 15 341 72 695 264 927 501 127 130 192 221 267 371 119
241 171 489 166 798 -6 329 -62 601 -220 1070 -184 547 -256 880 -257 1195 -1
173 16 278 67 403 6 13 -14 8 -96 -27 -172 -72 -304 -133 -510 -236 l-197 -97
-23 51 c-13 28 -22 54 -21 59 1 4 -3 7 -9 7 -5 0 -7 5 -4 10 3 6 1 10 -5 10
-6 0 -8 5 -5 10 3 6 1 10 -6 10 -7 0 -9 3 -6 7 4 3 2 12 -4 20 -6 7 -8 13 -3
13 5 0 3 4 -4 9 -7 4 -14 15 -16 23 -1 8 -10 27 -19 41 -10 15 -14 27 -11 27
4 0 0 8 -9 18 -10 10 -15 21 -12 24 3 3 -1 11 -10 18 -8 7 -15 17 -15 23 0 6
-8 19 -17 30 -13 15 -14 19 -3 13 8 -4 7 -1 -4 8 -10 8 -16 19 -13 24 4 4 -3
16 -14 25 -11 10 -17 22 -14 27 3 6 1 10 -5 10 -6 0 -8 5 -5 10 3 6 2 10 -3
10 -7 0 -41 61 -42 75 0 3 -9 14 -20 25 -12 12 -18 25 -15 30 4 6 2 10 -3 10
-5 0 -17 18 -27 40 -10 22 -22 40 -28 40 -5 0 -7 7 -3 15 3 9 -3 19 -15 26
-11 6 -18 13 -15 16 3 3 -2 12 -10 20 -8 8 -11 19 -8 25 4 7 2 8 -4 4 -7 -4
-12 -2 -12 3 0 6 0 13 0 16 0 3 -9 14 -20 25 -12 12 -18 25 -15 29 2 5 -2 12
-11 15 -9 4 -14 9 -11 12 3 4 -5 18 -19 32 -13 15 -24 35 -24 45 0 10 -4 16
-8 13 -4 -2 -14 4 -21 16 -10 16 -10 19 1 12 7 -4 1 5 -14 20 -15 16 -25 32
-22 37 3 5 0 9 -5 9 -6 0 -11 6 -11 14 0 8 -7 17 -16 20 -8 3 -13 10 -9 15 3
6 -3 14 -12 20 -10 6 -14 11 -9 11 4 0 -2 9 -15 21 -13 11 -17 18 -9 14 8 -3
5 2 -7 11 -13 9 -23 23 -23 30 0 8 -3 14 -8 14 -4 0 -13 9 -20 21 -11 17 -11
20 0 14 7 -4 2 3 -12 14 -14 11 -21 21 -15 21 5 0 -1 7 -13 16 -12 8 -20 20
-17 25 4 5 1 9 -5 9 -6 0 -8 5 -5 10 4 6 1 9 -6 8 -7 -2 -16 8 -20 22 -4 14
-7 21 -8 16 -1 -6 -7 -1 -15 9 -8 11 -12 23 -10 26 2 4 -3 9 -11 13 -8 3 -15
13 -15 21 0 9 -4 13 -10 10 -5 -3 -11 -1 -11 4 -1 6 -2 15 -3 20 0 5 -5 13
-10 18 -5 5 -6 2 -2 -7 4 -8 1 -6 -6 4 -7 11 -25 34 -40 51 -16 18 -28 36 -28
40 0 4 -8 14 -17 22 -11 9 -12 12 -3 7 8 -3 5 4 -7 17 -13 13 -34 36 -48 51
-14 15 -25 34 -25 43 0 8 -3 14 -8 12 -4 -1 -7 0 -7 3 -1 3 -12 17 -25 32 -49
53 -66 73 -90 108 -13 19 -32 42 -42 51 -10 9 -15 19 -11 23 3 3 2 6 -4 6 -5
0 -34 28 -64 63 -29 34 -45 56 -34 48 11 -8 -2 7 -30 33 -27 27 -43 45 -35 40
8 -4 -3 10 -25 32 -54 54 -75 81 -67 89 4 4 0 5 -8 3 -8 -2 -14 3 -12 10 1 8
-2 11 -8 7 -5 -3 -13 2 -17 12 -4 10 -24 33 -45 52 -21 19 -37 36 -34 38 2 2
-31 38 -73 80 -42 42 -69 73 -61 68 8 -4 3 3 -11 16 -56 53 -54 54 -55 -29z"/>
</g>
</svg>
