<?xml version="1.0" standalone="no"?>
<!DOCTYPE svg PUBLIC "-//W3C//DTD SVG 20010904//EN"
 "http://www.w3.org/TR/2001/REC-SVG-20010904/DTD/svg10.dtd">
<svg version="1.0" xmlns="http://www.w3.org/2000/svg"
 width="710.000000pt" height="710.000000pt" viewBox="0 0 710.000000 710.000000"
 preserveAspectRatio="xMidYMid meet">
<metadata>
Created by potrace 1.11, written by Peter Selinger 2001-2013
</metadata>
<g transform="translate(0.000000,710.000000) scale(0.100000,-0.100000)"
fill="#000000" stroke="none">
<path d="M3100 6884 c-2 -406 -367 -1046 -1000 -1754 -247 -277 -317 -360
-409 -483 -420 -564 -649 -1114 -668 -1602 -10 -246 22 -488 88 -682 17 -48
37 -112 45 -140 32 -122 170 -373 293 -537 224 -299 498 -524 831 -683 142
-68 393 -148 560 -179 114 -21 182 -27 318 -30 l173 -2 57 -54 c257 -243 588
-420 907 -485 134 -27 424 -24 558 5 156 34 299 87 456 167 192 99 311 184
451 325 219 218 343 450 410 765 28 129 38 461 21 627 -28 258 -78 468 -196
818 -173 515 -239 786 -266 1101 -16 193 4 390 52 498 11 24 18 45 17 46 -7 6
-344 -146 -566 -255 l-243 -119 -15 34 c-104 250 -331 663 -557 1015 -305 475
-760 1061 -1146 1478 -53 57 -113 123 -133 145 l-37 42 -1 -61z"/>
</g>
</svg>
